<?xml version="1.0" encoding="UTF-8"?>
<svg id="Layer_1" xmlns="http://www.w3.org/2000/svg" version="1.1" viewBox="0 0 1989.9 1049.9">
  <!-- Generator: Adobe Illustrator 29.2.1, SVG Export Plug-In . SVG Version: 2.1.0 Build 116)  -->
  <defs>
    <style>
      .st0 {
        fill: #3f3a60;
      }

      .st1 {
        fill: #aa182c;
      }
    </style>
  </defs>
  <rect class="st1" x="0" y="0" width="1194.2" height="82.4" transform="translate(1194.2 82.4) rotate(-180)"/>
  <rect class="st1" x="0" y="161.3" width="1194.2" height="82.4" transform="translate(1194.2 405) rotate(-180)"/>
  <rect class="st1" x="0" y="322.5" width="1194.2" height="82.4" transform="translate(1194.2 727.4) rotate(-180)"/>
  <rect class="st1" x="0" y="483.8" width="1194.2" height="82.4" transform="translate(1194.2 1050) rotate(-180)"/>
  <rect class="st1" x="0" y="645" width="1988.3" height="82.4" transform="translate(1988.3 1372.4) rotate(-180)"/>
  <rect class="st1" x="0" y="806.3" width="1988.3" height="82.4" transform="translate(1988.3 1695) rotate(-180)"/>
  <rect class="st1" x="0" y="967.6" width="1988.3" height="82.4" transform="translate(1988.3 2017.6) rotate(-180)"/>
  <path class="st0" d="M1194.2,566.2h794.1s0-566.2,0-566.2h-794.1s0,566.2,0,566.2h0ZM1821.7,385.4l-19.5,14.3,7.4,23.1-19.5-14.3-19.5,14.3,7.4-23.1-19.5-14.3h24.1s7.4-23.1,7.4-23.1l7.4,23.1h24s.3,0,.3,0ZM1821.7,158.3l-19.5,14.3,7.4,23.1-19.5-14.3-19.5,14.3,7.4-23.1-19.5-14.3h24.1s7.4-23.1,7.4-23.1l7.4,23.1h24s.3,0,.3,0ZM1770.8,82.2l7.4-23.1-19.5-14.3h24.1s7.4-23.1,7.4-23.1l7.4,23.1h24s-19.5,14.3-19.5,14.3l7.4,23.1-19.5-14.3-19.5,14.3h.3ZM1636.4,82.2l7.4-23.1-19.5-14.3h24s7.4-23.1,7.4-23.1l7.4,23.1h24s-19.5,14.3-19.5,14.3l7.4,23.1-19.5-14.3-19.5,14.3h.4ZM1504.6,82.2l7.4-23.1-19.5-14.3h24s7.4-23.1,7.4-23.1l7.4,23.1h24s-19.5,14.3-19.5,14.3l7.4,23.1-19.5-14.3-19.5,14.3h.4ZM1372.8,82.2l7.4-23.1-19.5-14.3h24s7.4-23.1,7.4-23.1l7.4,23.1h24s-19.5,14.3-19.5,14.3l7.4,23.1-19.5-14.3-19.5,14.3h.4ZM1380.3,172.6l-19.5-14.3h24s7.4-23.1,7.4-23.1l7.4,23.1h24s-19.5,14.3-19.5,14.3l7.4,23.1-19.5-14.3-19.5,14.3,7.4-23.1h.4ZM1384.9,498.9l7.4-23.1,7.4,23.1h24s-19.5,14.3-19.5,14.3l7.4,23.1-19.5-14.3-19.5,14.3,7.4-23.1-19.5-14.3h24s.4,0,.4,0ZM1516.7,498.9l7.4-23.1,7.4,23.1h24s-19.5,14.3-19.5,14.3l7.4,23.1-19.5-14.3-19.5,14.3,7.4-23.1-19.5-14.3h24s.4,0,.4,0ZM1648.4,498.9l7.4-23.1,7.4,23.1h24s-19.5,14.3-19.5,14.3l7.4,23.1-19.5-14.3-19.5,14.3,7.4-23.1-19.5-14.3h24s.4,0,.4,0ZM1687.4,385.4l-19.5,14.3,7.4,23.1-19.5-14.3-19.5,14.3,7.4-23.1-19.5-14.3h24s7.4-23.1,7.4-23.1l7.4,23.1h24s.4,0,.4,0ZM1687.4,158.3l-19.5,14.3,7.4,23.1-19.5-14.3-19.5,14.3,7.4-23.1-19.5-14.3h24s7.4-23.1,7.4-23.1l7.4,23.1h24s.4,0,.4,0ZM1555.6,158.3l-19.5,14.3,7.4,23.1-19.5-14.3-19.5,14.3,7.4-23.1-19.5-14.3h24s7.4-23.1,7.4-23.1l7.4,23.1h24s.4,0,.4,0ZM1438.3,480.9l7.4-23.1-19.5-14.3h24s7.4-23.1,7.4-23.1l7.4,23.1h24s-19.5,14.3-19.5,14.3l7.4,23.1-19.5-14.3-19.5,14.3h.4ZM1504.6,422.8l7.4-23.1-19.5-14.3h24s7.4-23.1,7.4-23.1l7.4,23.1h24s-19.5,14.3-19.5,14.3l7.4,23.1-19.5-14.3-19.5,14.3h.4ZM1571,480.9l7.4-23.1-19.5-14.3h24s7.4-23.1,7.4-23.1l7.4,23.1h24s-19.5,14.3-19.5,14.3l7.4,23.1-19.5-14.3-19.5,14.3h.4ZM1504.6,309.2l7.4-23.1-19.5-14.3h24s7.4-23.1,7.4-23.1l7.4,23.1h24s-19.5,14.3-19.5,14.3l7.4,23.1-19.5-14.3-19.5,14.3h.4ZM1621.9,216.4l-19.5,14.3,7.4,23.1-19.5-14.3-19.5,14.3,7.4-23.1-19.5-14.3h24s7.4-23.1,7.4-23.1l7.4,23.1h24s.4,0,.4,0ZM1663.3,271.8h24s-19.5,14.3-19.5,14.3l7.4,23.1-19.5-14.3-19.5,14.3,7.4-23.1-19.5-14.3h24s7.4-23.1,7.4-23.1l7.4,23.1h.4ZM1590.4,306.8l7.4,23.1h24s-19.5,14.3-19.5,14.3l7.4,23.1-19.5-14.3-19.5,14.3,7.4-23.1-19.5-14.3h24s7.4-23.1,7.4-23.1h.4ZM1730.5,443.5h24s-19.5,14.3-19.5,14.3l7.4,23.1-19.5-14.3-19.5,14.3,7.4-23.1-19.5-14.3h24s7.4-23.1,7.4-23.1l7.4,23.1h.4ZM1305.6,480.9l7.4-23.1-19.5-14.3h24s7.4-23.1,7.4-23.1l7.4,23.1h24s-19.5,14.3-19.5,14.3l7.4,23.1-19.5-14.3-19.5,14.3h.4ZM1372.8,422.8l7.4-23.1-19.5-14.3h24s7.4-23.1,7.4-23.1l7.4,23.1h24s-19.5,14.3-19.5,14.3l7.4,23.1-19.5-14.3-19.5,14.3h.4ZM1450.3,329.9l7.4-23.1,7.4,23.1h24s-19.5,14.3-19.5,14.3l7.4,23.1-19.5-14.3-19.5,14.3,7.4-23.1-19.5-14.3h24s.4,0,.4,0ZM1372.8,309.2l7.4-23.1-19.5-14.3h24s7.4-23.1,7.4-23.1l7.4,23.1h24s-19.5,14.3-19.5,14.3l7.4,23.1-19.5-14.3-19.5,14.3h.4ZM1438.3,253.8l7.4-23.1-19.5-14.3h24s7.4-23.1,7.4-23.1l7.4,23.1h24s-19.5,14.3-19.5,14.3l7.4,23.1-19.5-14.3-19.5,14.3h.4ZM1450.3,102.9l7.4-23.1,7.4,23.1h24s-19.5,14.3-19.5,14.3l7.4,23.1-19.5-14.3-19.5,14.3,7.4-23.1-19.5-14.3h24s.4,0,.4,0ZM1583,102.9l7.4-23.1,7.4,23.1h24s-19.5,14.3-19.5,14.3l7.4,23.1-19.5-14.3-19.5,14.3,7.4-23.1-19.5-14.3h24s.4,0,.4,0ZM1715.7,102.9l7.4-23.1,7.4,23.1h24s-19.5,14.3-19.5,14.3l7.4,23.1-19.5-14.3-19.5,14.3,7.4-23.1-19.5-14.3h24s.4,0,.4,0ZM1754.6,216.4l-19.5,14.3,7.4,23.1-19.5-14.3-19.5,14.3,7.4-23.1-19.5-14.3h24s7.4-23.1,7.4-23.1l7.4,23.1h24s.4,0,.4,0ZM1797.6,271.8h24s-19.5,14.3-19.5,14.3l7.4,23.1-19.5-14.3-19.5,14.3,7.4-23.1-19.5-14.3h24.1s7.4-23.1,7.4-23.1l7.4,23.1h.3ZM1723.1,306.8l7.4,23.1h24s-19.5,14.3-19.5,14.3l7.4,23.1-19.5-14.3-19.5,14.3,7.4-23.1-19.5-14.3h24s7.4-23.1,7.4-23.1h.4ZM1863.2,443.5h24s-19.5,14.3-19.5,14.3l7.4,23.1-19.5-14.3-19.5,14.3,7.4-23.1-19.5-14.3h24s7.4-23.1,7.4-23.1l7.4,23.1h.4ZM1797.6,498.9h24s-19.5,14.3-19.5,14.3l7.4,23.1-19.5-14.3-19.5,14.3,7.4-23.1-19.5-14.3h24.1s7.4-23.1,7.4-23.1l7.4,23.1h.3ZM1250.4,498.9l7.4-23.1,7.4,23.1h24s-19.5,14.3-19.5,14.3l7.4,23.1-19.5-14.3-19.5,14.3,7.4-23.1-19.5-14.3h24s.4,0,.4,0ZM1238.4,422.8l7.4-23.1-19.5-14.3h24s7.4-23.1,7.4-23.1l7.4,23.1h24s-19.5,14.3-19.5,14.3l7.4,23.1-19.5-14.3-19.5,14.3h.4ZM1317.7,329.9l7.4-23.1,7.4,23.1h24s-19.5,14.3-19.5,14.3l7.4,23.1-19.5-14.3-19.5,14.3,7.4-23.1-19.5-14.3h24s.4,0,.4,0ZM1238.4,309.2l7.4-23.1-19.5-14.3h24s7.4-23.1,7.4-23.1l7.4,23.1h24s-19.5,14.3-19.5,14.3l7.4,23.1-19.5-14.3-19.5,14.3h.4ZM1305.6,253.8l7.4-23.1-19.5-14.3h24s7.4-23.1,7.4-23.1l7.4,23.1h24s-19.5,14.3-19.5,14.3l7.4,23.1-19.5-14.3-19.5,14.3h.4ZM1238.4,195.7l7.4-23.1-19.5-14.3h24s7.4-23.1,7.4-23.1l7.4,23.1h24s-19.5,14.3-19.5,14.3l7.4,23.1-19.5-14.3-19.5,14.3h.4ZM1317.7,102.9l7.4-23.1,7.4,23.1h24s-19.5,14.3-19.5,14.3l7.4,23.1-19.5-14.3-19.5,14.3,7.4-23.1-19.5-14.3h24s.4,0,.4,0ZM1238.4,82.2l7.4-23.1-19.5-14.3h24s7.4-23.1,7.4-23.1l7.4,23.1h24s-19.5,14.3-19.5,14.3l7.4,23.1-19.5-14.3-19.5,14.3h.4ZM1901.8,82.2l7.4-23.1-19.5-14.3h24s7.4-23.1,7.4-23.1l7.4,23.1h24s-19.5,14.3-19.5,14.3l7.4,23.1-19.5-14.3-19.5,14.3h.4ZM1855.8,79.8l7.4,23.1h24s-19.5,14.3-19.5,14.3l7.4,23.1-19.5-14.3-19.5,14.3,7.4-23.1-19.5-14.3h24s7.4-23.1,7.4-23.1h.4ZM1952.7,158.3l-19.5,14.3,7.4,23.1-19.5-14.3-19.5,14.3,7.4-23.1-19.5-14.3h24s7.4-23.1,7.4-23.1l7.4,23.1h24s.4,0,.4,0ZM1887.2,216.4l-19.5,14.3,7.4,23.1-19.5-14.3-19.5,14.3,7.4-23.1-19.5-14.3h24s7.4-23.1,7.4-23.1l7.4,23.1h24s.4,0,.4,0ZM1901.8,309.2l7.4-23.1-19.5-14.3h24s7.4-23.1,7.4-23.1l7.4,23.1h24s-19.5,14.3-19.5,14.3l7.4,23.1-19.5-14.3-19.5,14.3h.4ZM1855.8,306.8l7.4,23.1h24s-19.5,14.3-19.5,14.3l7.4,23.1-19.5-14.3-19.5,14.3,7.4-23.1-19.5-14.3h24s7.4-23.1,7.4-23.1h.4ZM1952.7,385.4l-19.5,14.3,7.4,23.1-19.5-14.3-19.5,14.3,7.4-23.1-19.5-14.3h24s7.4-23.1,7.4-23.1l7.4,23.1h24s.4,0,.4,0ZM1921.2,475.8l7.4,23.1h24s-19.5,14.3-19.5,14.3l7.4,23.1-19.5-14.3-19.5,14.3,7.4-23.1-19.5-14.3h24s7.4-23.1,7.4-23.1h.4Z"/>
</svg>