<?xml version="1.0" encoding="UTF-8"?>
<svg id="Layer_1" xmlns="http://www.w3.org/2000/svg" version="1.1" viewBox="0 0 1989.9 1049.9">
  <!-- Generator: Adobe Illustrator 29.1.0, SVG Export Plug-In . SVG Version: 2.1.0 Build 142)  -->
  <defs>
    <style>
      .st0 {
        fill: #aa182c;
      }

      .st1 {
        fill: #3f3a60;
      }
    </style>
  </defs>
  <rect class="st0" x="794.1" y="0" width="1194.2" height="82.4"/>
  <rect class="st0" x="794.1" y="161.3" width="1194.2" height="82.4"/>
  <rect class="st0" x="794.1" y="322.5" width="1194.2" height="82.4"/>
  <rect class="st0" x="794.1" y="483.8" width="1194.2" height="82.4"/>
  <rect class="st0" x="0" y="645" width="1988.3" height="82.4"/>
  <rect class="st0" x="0" y="806.3" width="1988.3" height="82.4"/>
  <rect class="st0" x="0" y="967.6" width="1988.3" height="82.4"/>
  <path class="st1" d="M794.1,566.2V0h0S0,0,0,0H0v566.2H0s794.1,0,794.1,0h0ZM166.9,385.4h24l7.4-23.1,7.4,23.1h24.1l-19.5,14.3,7.4,23.1-19.5-14.3-19.5,14.3,7.4-23.1-19.5-14.3ZM166.9,158.3h24l7.4-23.1,7.4,23.1h24.1l-19.5,14.3,7.4,23.1-19.5-14.3-19.5,14.3,7.4-23.1-19.5-14.3ZM217.8,82.2l-19.5-14.3-19.5,14.3,7.4-23.1-19.5-14.3h24l7.4-23.1,7.4,23.1h24.1l-19.5,14.3,7.4,23.1ZM352.3,82.2l-19.5-14.3-19.5,14.3,7.4-23.1-19.5-14.3h24l7.4-23.1,7.4,23.1h24l-19.5,14.3,7.4,23.1ZM484.1,82.2l-19.5-14.3-19.5,14.3,7.4-23.1-19.5-14.3h24l7.4-23.1,7.4,23.1h24l-19.5,14.3,7.4,23.1ZM615.9,82.2l-19.5-14.3-19.5,14.3,7.4-23.1-19.5-14.3h24l7.4-23.1,7.4,23.1h24l-19.5,14.3,7.4,23.1ZM608.4,172.6l7.4,23.1-19.5-14.3-19.5,14.3,7.4-23.1-19.5-14.3h24l7.4-23.1,7.4,23.1h24l-19.5,14.3ZM603.8,498.9h24l-19.5,14.3,7.4,23.1-19.5-14.3-19.5,14.3,7.4-23.1-19.5-14.3h24l7.4-23.1,7.4,23.1ZM472,498.9h24l-19.5,14.3,7.4,23.1-19.5-14.3-19.5,14.3,7.4-23.1-19.5-14.3h24l7.4-23.1,7.4,23.1ZM340.3,498.9h24l-19.5,14.3,7.4,23.1-19.5-14.3-19.5,14.3,7.4-23.1-19.5-14.3h24l7.4-23.1,7.4,23.1ZM301.3,385.4h24l7.4-23.1,7.4,23.1h24l-19.5,14.3,7.4,23.1-19.5-14.3-19.5,14.3,7.4-23.1-19.5-14.3ZM301.3,158.3h24l7.4-23.1,7.4,23.1h24l-19.5,14.3,7.4,23.1-19.5-14.3-19.5,14.3,7.4-23.1-19.5-14.3ZM433.1,158.3h24l7.4-23.1,7.4,23.1h24l-19.5,14.3,7.4,23.1-19.5-14.3-19.5,14.3,7.4-23.1-19.5-14.3ZM550.4,480.9l-19.5-14.3-19.5,14.3,7.4-23.1-19.5-14.3h24l7.4-23.1,7.4,23.1h24l-19.5,14.3,7.4,23.1ZM484.1,422.8l-19.5-14.3-19.5,14.3,7.4-23.1-19.5-14.3h24l7.4-23.1,7.4,23.1h24l-19.5,14.3,7.4,23.1ZM417.7,480.9l-19.5-14.3-19.5,14.3,7.4-23.1-19.5-14.3h24l7.4-23.1,7.4,23.1h24l-19.5,14.3,7.4,23.1ZM484.1,309.2l-19.5-14.3-19.5,14.3,7.4-23.1-19.5-14.3h24l7.4-23.1,7.4,23.1h24l-19.5,14.3,7.4,23.1ZM366.8,216.4h24l7.4-23.1,7.4,23.1h24l-19.5,14.3,7.4,23.1-19.5-14.3-19.5,14.3,7.4-23.1-19.5-14.3ZM325.4,271.8l7.4-23.1,7.4,23.1h24l-19.5,14.3,7.4,23.1-19.5-14.3-19.5,14.3,7.4-23.1-19.5-14.3h24ZM398.3,306.8l7.4,23.1h24l-19.5,14.3,7.4,23.1-19.5-14.3-19.5,14.3,7.4-23.1-19.5-14.3h24l7.4-23.1ZM258.2,443.5l7.4-23.1,7.4,23.1h24l-19.5,14.3,7.4,23.1-19.5-14.3-19.5,14.3,7.4-23.1-19.5-14.3h24ZM683.1,480.9l-19.5-14.3-19.5,14.3,7.4-23.1-19.5-14.3h24l7.4-23.1,7.4,23.1h24l-19.5,14.3,7.4,23.1ZM615.9,422.8l-19.5-14.3-19.5,14.3,7.4-23.1-19.5-14.3h24l7.4-23.1,7.4,23.1h24l-19.5,14.3,7.4,23.1ZM538.4,329.9h24l-19.5,14.3,7.4,23.1-19.5-14.3-19.5,14.3,7.4-23.1-19.5-14.3h24l7.4-23.1,7.4,23.1ZM615.9,309.2l-19.5-14.3-19.5,14.3,7.4-23.1-19.5-14.3h24l7.4-23.1,7.4,23.1h24l-19.5,14.3,7.4,23.1ZM550.4,253.8l-19.5-14.3-19.5,14.3,7.4-23.1-19.5-14.3h24l7.4-23.1,7.4,23.1h24l-19.5,14.3,7.4,23.1ZM538.4,102.9h24l-19.5,14.3,7.4,23.1-19.5-14.3-19.5,14.3,7.4-23.1-19.5-14.3h24l7.4-23.1,7.4,23.1ZM405.7,102.9h24l-19.5,14.3,7.4,23.1-19.5-14.3-19.5,14.3,7.4-23.1-19.5-14.3h24l7.4-23.1,7.4,23.1ZM273,102.9h24l-19.5,14.3,7.4,23.1-19.5-14.3-19.5,14.3,7.4-23.1-19.5-14.3h24l7.4-23.1,7.4,23.1ZM234.1,216.4h24l7.4-23.1,7.4,23.1h24l-19.5,14.3,7.4,23.1-19.5-14.3-19.5,14.3,7.4-23.1-19.5-14.3ZM191,271.8l7.4-23.1,7.4,23.1h24.1l-19.5,14.3,7.4,23.1-19.5-14.3-19.5,14.3,7.4-23.1-19.5-14.3h24ZM265.6,306.8l7.4,23.1h24l-19.5,14.3,7.4,23.1-19.5-14.3-19.5,14.3,7.4-23.1-19.5-14.3h24l7.4-23.1ZM125.5,443.5l7.4-23.1,7.4,23.1h24l-19.5,14.3,7.4,23.1-19.5-14.3-19.5,14.3,7.4-23.1-19.5-14.3h24ZM191,498.9l7.4-23.1,7.4,23.1h24.1l-19.5,14.3,7.4,23.1-19.5-14.3-19.5,14.3,7.4-23.1-19.5-14.3h24ZM738.3,498.9h24l-19.5,14.3,7.4,23.1-19.5-14.3-19.5,14.3,7.4-23.1-19.5-14.3h24l7.4-23.1,7.4,23.1ZM750.3,422.8l-19.5-14.3-19.5,14.3,7.4-23.1-19.5-14.3h24l7.4-23.1,7.4,23.1h24l-19.5,14.3,7.4,23.1ZM671,329.9h24l-19.5,14.3,7.4,23.1-19.5-14.3-19.5,14.3,7.4-23.1-19.5-14.3h24l7.4-23.1,7.4,23.1ZM750.3,309.2l-19.5-14.3-19.5,14.3,7.4-23.1-19.5-14.3h24l7.4-23.1,7.4,23.1h24l-19.5,14.3,7.4,23.1ZM683.1,253.8l-19.5-14.3-19.5,14.3,7.4-23.1-19.5-14.3h24l7.4-23.1,7.4,23.1h24l-19.5,14.3,7.4,23.1ZM750.3,195.7l-19.5-14.3-19.5,14.3,7.4-23.1-19.5-14.3h24l7.4-23.1,7.4,23.1h24l-19.5,14.3,7.4,23.1ZM671,102.9h24l-19.5,14.3,7.4,23.1-19.5-14.3-19.5,14.3,7.4-23.1-19.5-14.3h24l7.4-23.1,7.4,23.1ZM750.3,82.2l-19.5-14.3-19.5,14.3,7.4-23.1-19.5-14.3h24l7.4-23.1,7.4,23.1h24l-19.5,14.3,7.4,23.1ZM86.9,82.2l-19.5-14.3-19.5,14.3,7.4-23.1-19.5-14.3h24l7.4-23.1,7.4,23.1h24l-19.5,14.3,7.4,23.1ZM132.9,79.8l7.4,23.1h24l-19.5,14.3,7.4,23.1-19.5-14.3-19.5,14.3,7.4-23.1-19.5-14.3h24l7.4-23.1ZM36,158.3h24l7.4-23.1,7.4,23.1h24l-19.5,14.3,7.4,23.1-19.5-14.3-19.5,14.3,7.4-23.1-19.5-14.3ZM101.5,216.4h24l7.4-23.1,7.4,23.1h24l-19.5,14.3,7.4,23.1-19.5-14.3-19.5,14.3,7.4-23.1-19.5-14.3ZM86.9,309.2l-19.5-14.3-19.5,14.3,7.4-23.1-19.5-14.3h24l7.4-23.1,7.4,23.1h24l-19.5,14.3,7.4,23.1ZM132.9,306.8l7.4,23.1h24l-19.5,14.3,7.4,23.1-19.5-14.3-19.5,14.3,7.4-23.1-19.5-14.3h24l7.4-23.1ZM36,385.4h24l7.4-23.1,7.4,23.1h24l-19.5,14.3,7.4,23.1-19.5-14.3-19.5,14.3,7.4-23.1-19.5-14.3ZM67.5,475.8l7.4,23.1h24l-19.5,14.3,7.4,23.1-19.5-14.3-19.5,14.3,7.4-23.1-19.5-14.3h24l7.4-23.1Z"/>
</svg>