<?xml version="1.0" encoding="UTF-8"?>
<svg id="Layer_1" xmlns="http://www.w3.org/2000/svg" version="1.1" xmlns:xlink="http://www.w3.org/1999/xlink" viewBox="0 0 1989.9 1049.9">
  <!-- Generator: Adobe Illustrator 29.1.0, SVG Export Plug-In . SVG Version: 2.1.0 Build 142)  -->
  <defs>
    <style>
      .st0 {
        fill: #fff;
      }

      .st1 {
        fill: none;
      }

      .st2 {
        fill: #aa182c;
      }

      .st3 {
        fill: #3f3a60;
      }

      .st4 {
        clip-path: url(#clippath);
      }
    </style>
    <clipPath id="clippath">
      <rect class="st1" x="0" width="1989.9" height="1049.9"/>
    </clipPath>
  </defs>
  <g class="st4">
    <rect class="st0" x="0" y="0" width="1988.3" height="1049.9"/>
    <rect class="st2" x="0" y="0" width="1988.3" height="82.4"/>
    <rect class="st2" x="0" y="161.3" width="1988.3" height="82.4"/>
    <rect class="st2" x="0" y="322.5" width="1988.3" height="82.4"/>
    <rect class="st2" x="0" y="483.8" width="1988.3" height="82.4"/>
    <rect class="st2" x="0" y="645" width="1988.3" height="82.4"/>
    <rect class="st2" x="0" y="806.3" width="1988.3" height="82.4"/>
    <rect class="st2" x="0" y="967.6" width="1988.3" height="82.4"/>
    <rect class="st3" x="0" width="794.1" height="566.2"/>
  </g>
  <polyline class="st0" points="67.5 21.7 74.9 44.8 99 44.8 79.5 59.1 86.9 82.2 67.5 67.9 48 82.2 55.5 59.1 36 44.8 60 44.8 67.5 21.7"/>
  <polyline class="st0" points="132.9 79.8 140.4 102.9 164.4 102.9 145 117.2 152.4 140.3 132.9 126 113.5 140.3 120.9 117.2 101.5 102.9 125.5 102.9 132.9 79.8"/>
  <polyline class="st0" points="132.9 193.3 140.4 216.4 164.4 216.4 145 230.7 152.4 253.8 132.9 239.5 113.5 253.8 120.9 230.7 101.5 216.4 125.5 216.4 132.9 193.3"/>
  <polyline class="st0" points="132.9 306.8 140.4 329.9 164.4 329.9 145 344.2 152.4 367.3 132.9 353.1 113.5 367.3 120.9 344.2 101.5 329.9 125.5 329.9 132.9 306.8"/>
  <polyline class="st0" points="132.9 420.3 140.4 443.5 164.4 443.5 145 457.7 152.4 480.9 132.9 466.6 113.5 480.9 120.9 457.7 101.5 443.5 125.5 443.5 132.9 420.3"/>
  <polyline class="st0" points="265.6 79.8 273 102.9 297.1 102.9 277.6 117.2 285.1 140.3 265.6 126 246.1 140.3 253.6 117.2 234.1 102.9 258.2 102.9 265.6 79.8"/>
  <polyline class="st0" points="265.6 193.3 273 216.4 297.1 216.4 277.6 230.7 285.1 253.8 265.6 239.5 246.1 253.8 253.6 230.7 234.1 216.4 258.2 216.4 265.6 193.3"/>
  <polyline class="st0" points="265.6 306.8 273 329.9 297.1 329.9 277.6 344.2 285.1 367.3 265.6 353.1 246.1 367.3 253.6 344.2 234.1 329.9 258.2 329.9 265.6 306.8"/>
  <polyline class="st0" points="265.6 420.3 273 443.5 297.1 443.5 277.6 457.7 285.1 480.9 265.6 466.6 246.1 480.9 253.6 457.7 234.1 443.5 258.2 443.5 265.6 420.3"/>
  <polyline class="st0" points="398.3 79.8 405.7 102.9 429.8 102.9 410.3 117.2 417.7 140.3 398.3 126 378.8 140.3 386.2 117.2 366.8 102.9 390.8 102.9 398.3 79.8"/>
  <polyline class="st0" points="398.3 193.3 405.7 216.4 429.8 216.4 410.3 230.7 417.7 253.8 398.3 239.5 378.8 253.8 386.2 230.7 366.8 216.4 390.8 216.4 398.3 193.3"/>
  <polyline class="st0" points="398.3 306.8 405.7 329.9 429.8 329.9 410.3 344.2 417.7 367.3 398.3 353.1 378.8 367.3 386.2 344.2 366.8 329.9 390.8 329.9 398.3 306.8"/>
  <polyline class="st0" points="398.3 420.3 405.7 443.5 429.8 443.5 410.3 457.7 417.7 480.9 398.3 466.6 378.8 480.9 386.2 457.7 366.8 443.5 390.8 443.5 398.3 420.3"/>
  <polyline class="st0" points="530.9 79.8 538.4 102.9 562.4 102.9 543 117.2 550.4 140.3 530.9 126 511.5 140.3 518.9 117.2 499.5 102.9 523.5 102.9 530.9 79.8"/>
  <polyline class="st0" points="530.9 193.3 538.4 216.4 562.4 216.4 543 230.7 550.4 253.8 530.9 239.5 511.5 253.8 518.9 230.7 499.5 216.4 523.5 216.4 530.9 193.3"/>
  <polyline class="st0" points="530.9 306.8 538.4 329.9 562.4 329.9 543 344.2 550.4 367.3 530.9 353.1 511.5 367.3 518.9 344.2 499.5 329.9 523.5 329.9 530.9 306.8"/>
  <polyline class="st0" points="530.9 420.3 538.4 443.5 562.4 443.5 543 457.7 550.4 480.9 530.9 466.6 511.5 480.9 518.9 457.7 499.5 443.5 523.5 443.5 530.9 420.3"/>
  <polyline class="st0" points="663.6 79.8 671 102.9 695.1 102.9 675.6 117.2 683.1 140.3 663.6 126 644.2 140.3 651.6 117.2 632.1 102.9 656.2 102.9 663.6 79.8"/>
  <polyline class="st0" points="663.6 193.3 671 216.4 695.1 216.4 675.6 230.7 683.1 253.8 663.6 239.5 644.2 253.8 651.6 230.7 632.1 216.4 656.2 216.4 663.6 193.3"/>
  <polyline class="st0" points="663.6 306.8 671 329.9 695.1 329.9 675.6 344.2 683.1 367.3 663.6 353.1 644.2 367.3 651.6 344.2 632.1 329.9 656.2 329.9 663.6 306.8"/>
  <polyline class="st0" points="663.6 420.3 671 443.5 695.1 443.5 675.6 457.7 683.1 480.9 663.6 466.6 644.2 480.9 651.6 457.7 632.1 443.5 656.2 443.5 663.6 420.3"/>
  <polyline class="st0" points="67.5 135.2 74.9 158.3 99 158.3 79.5 172.6 86.9 195.7 67.5 181.4 48 195.7 55.5 172.6 36 158.3 60 158.3 67.5 135.2"/>
  <polyline class="st0" points="67.5 248.7 74.9 271.8 99 271.8 79.5 286.1 86.9 309.2 67.5 295 48 309.2 55.5 286.1 36 271.8 60 271.8 67.5 248.7"/>
  <polyline class="st0" points="67.5 362.2 74.9 385.4 99 385.4 79.5 399.6 86.9 422.8 67.5 408.5 48 422.8 55.5 399.6 36 385.4 60 385.4 67.5 362.2"/>
  <polyline class="st0" points="67.5 475.8 74.9 498.9 99 498.9 79.5 513.2 86.9 536.3 67.5 522 48 536.3 55.5 513.2 36 498.9 60 498.9 67.5 475.8"/>
  <polyline class="st0" points="198.4 21.7 205.8 44.8 229.9 44.8 210.4 59.1 217.8 82.2 198.4 67.9 178.9 82.2 186.4 59.1 166.9 44.8 191 44.8 198.4 21.7"/>
  <polyline class="st0" points="198.4 135.2 205.8 158.3 229.9 158.3 210.4 172.6 217.8 195.7 198.4 181.4 178.9 195.7 186.4 172.6 166.9 158.3 191 158.3 198.4 135.2"/>
  <polyline class="st0" points="198.4 248.7 205.8 271.8 229.9 271.8 210.4 286.1 217.8 309.2 198.4 295 178.9 309.2 186.4 286.1 166.9 271.8 191 271.8 198.4 248.7"/>
  <polyline class="st0" points="198.4 362.2 205.8 385.4 229.9 385.4 210.4 399.6 217.8 422.8 198.4 408.5 178.9 422.8 186.4 399.6 166.9 385.4 191 385.4 198.4 362.2"/>
  <polyline class="st0" points="198.4 475.8 205.8 498.9 229.9 498.9 210.4 513.2 217.8 536.3 198.4 522 178.9 536.3 186.4 513.2 166.9 498.9 191 498.9 198.4 475.8"/>
  <polyline class="st0" points="332.8 21.7 340.3 44.8 364.3 44.8 344.8 59.1 352.3 82.2 332.8 67.9 313.4 82.2 320.8 59.1 301.3 44.8 325.4 44.8 332.8 21.7"/>
  <polyline class="st0" points="332.8 135.2 340.3 158.3 364.3 158.3 344.8 172.6 352.3 195.7 332.8 181.4 313.4 195.7 320.8 172.6 301.3 158.3 325.4 158.3 332.8 135.2"/>
  <polyline class="st0" points="332.8 248.7 340.3 271.8 364.3 271.8 344.8 286.1 352.3 309.2 332.8 295 313.4 309.2 320.8 286.1 301.3 271.8 325.4 271.8 332.8 248.7"/>
  <polyline class="st0" points="332.8 362.2 340.3 385.4 364.3 385.4 344.8 399.6 352.3 422.8 332.8 408.5 313.4 422.8 320.8 399.6 301.3 385.4 325.4 385.4 332.8 362.2"/>
  <polyline class="st0" points="332.8 475.8 340.3 498.9 364.3 498.9 344.8 513.2 352.3 536.3 332.8 522 313.4 536.3 320.8 513.2 301.3 498.9 325.4 498.9 332.8 475.8"/>
  <polyline class="st0" points="464.6 21.7 472 44.8 496.1 44.8 476.6 59.1 484.1 82.2 464.6 67.9 445.2 82.2 452.6 59.1 433.1 44.8 457.2 44.8 464.6 21.7"/>
  <polyline class="st0" points="464.6 135.2 472 158.3 496.1 158.3 476.6 172.6 484.1 195.7 464.6 181.4 445.2 195.7 452.6 172.6 433.1 158.3 457.2 158.3 464.6 135.2"/>
  <polyline class="st0" points="464.6 248.7 472 271.8 496.1 271.8 476.6 286.1 484.1 309.2 464.6 295 445.2 309.2 452.6 286.1 433.1 271.8 457.2 271.8 464.6 248.7"/>
  <polyline class="st0" points="464.6 362.2 472 385.4 496.1 385.4 476.6 399.6 484.1 422.8 464.6 408.5 445.2 422.8 452.6 399.6 433.1 385.4 457.2 385.4 464.6 362.2"/>
  <polyline class="st0" points="464.6 475.8 472 498.9 496.1 498.9 476.6 513.2 484.1 536.3 464.6 522 445.2 536.3 452.6 513.2 433.1 498.9 457.2 498.9 464.6 475.8"/>
  <polyline class="st0" points="596.4 21.7 603.8 44.8 627.9 44.8 608.4 59.1 615.9 82.2 596.4 67.9 576.9 82.2 584.4 59.1 564.9 44.8 589 44.8 596.4 21.7"/>
  <polyline class="st0" points="596.4 135.2 603.8 158.3 627.9 158.3 608.4 172.6 615.9 195.7 596.4 181.4 576.9 195.7 584.4 172.6 564.9 158.3 589 158.3 596.4 135.2"/>
  <polyline class="st0" points="596.4 248.7 603.8 271.8 627.9 271.8 608.4 286.1 615.9 309.2 596.4 295 576.9 309.2 584.4 286.1 564.9 271.8 589 271.8 596.4 248.7"/>
  <polyline class="st0" points="596.4 362.2 603.8 385.4 627.9 385.4 608.4 399.6 615.9 422.8 596.4 408.5 576.9 422.8 584.4 399.6 564.9 385.4 589 385.4 596.4 362.2"/>
  <polyline class="st0" points="596.4 475.8 603.8 498.9 627.9 498.9 608.4 513.2 615.9 536.3 596.4 522 576.9 536.3 584.4 513.2 564.9 498.9 589 498.9 596.4 475.8"/>
  <polyline class="st0" points="730.8 21.7 738.3 44.8 762.3 44.8 742.9 59.1 750.3 82.2 730.8 67.9 711.4 82.2 718.8 59.1 699.4 44.8 723.4 44.8 730.8 21.7"/>
  <polyline class="st0" points="730.8 135.2 738.3 158.3 762.3 158.3 742.9 172.6 750.3 195.7 730.8 181.4 711.4 195.7 718.8 172.6 699.4 158.3 723.4 158.3 730.8 135.2"/>
  <polyline class="st0" points="730.8 248.7 738.3 271.8 762.3 271.8 742.9 286.1 750.3 309.2 730.8 295 711.4 309.2 718.8 286.1 699.4 271.8 723.4 271.8 730.8 248.7"/>
  <polyline class="st0" points="730.8 362.2 738.3 385.4 762.3 385.4 742.9 399.6 750.3 422.8 730.8 408.5 711.4 422.8 718.8 399.6 699.4 385.4 723.4 385.4 730.8 362.2"/>
  <polyline class="st0" points="730.8 475.8 738.3 498.9 762.3 498.9 742.9 513.2 750.3 536.3 730.8 522 711.4 536.3 718.8 513.2 699.4 498.9 723.4 498.9 730.8 475.8"/>
</svg>