<?xml version="1.0" encoding="UTF-8"?>
<svg id="Layer_1" xmlns="http://www.w3.org/2000/svg" version="1.1" xmlns:xlink="http://www.w3.org/1999/xlink" viewBox="0 0 1989.900024 1049.900024">
  <!-- Generator: Adobe Illustrator 29.2.1, SVG Export Plug-In . SVG Version: 2.1.0 Build 116)  -->
  <defs>
    <style>
      .st0 {
        fill: #3f3a60;
      }

      .st1 {
        fill: #aa182c;
      }

      .st2 {
        fill: #fff;
      }

      .st3 {
        fill: none;
      }

      .st4 {
        clip-path: url(#clippath);
      }
    </style>
    <clipPath id="clippath">
      <rect class="st3" width="1989.900024" height="1049.900024"/>
    </clipPath>
  </defs>
  <g class="st4">
    <g>
      <rect class="st2" x="1.599976" y="0" width="1988.300049" height="1049.900024" transform="translate(1991.5 1049.900024) rotate(-180)"/>
      <rect class="st1" x="1.599976" y="0" width="1988.300049" height="82.400002" transform="translate(1991.5 82.400002) rotate(-180)"/>
      <rect class="st1" x="1.599976" y="161.300003" width="1988.300049" height="82.400009" transform="translate(1991.5 405.000015) rotate(-180)"/>
      <rect class="st1" x="1.599976" y="322.5" width="1988.300049" height="82.399994" transform="translate(1991.5 727.399994) rotate(-180)"/>
      <rect class="st1" x="1.599976" y="483.799988" width="1988.300049" height="82.400024" transform="translate(1991.5 1050) rotate(-180)"/>
      <rect class="st1" x="1.599976" y="645" width="1988.300049" height="82.400024" transform="translate(1991.5 1372.400024) rotate(-180)"/>
      <rect class="st1" x="1.599976" y="806.299988" width="1988.300049" height="82.400024" transform="translate(1991.5 1695) rotate(-180)"/>
      <rect class="st1" x="1.599976" y="967.599976" width="1988.300049" height="82.400024" transform="translate(1991.5 2017.599976) rotate(-180)"/>
      <rect class="st0" x="1195.800049" y="0" width="794.099976" height="566.200012" transform="translate(3185.700073 566.200012) rotate(-180)"/>
    </g>
  </g>
  <polyline class="st2" points="1922.400024 21.700001 1929.900024 44.799999 1953.900024 44.799999 1934.400024 59.099999 1941.900024 82.199997 1922.400024 67.900002 1903.000023 82.199997 1910.400024 59.099999 1890.900024 44.799999 1915.000023 44.799999 1922.400024 21.700001"/>
  <polyline class="st2" points="1857.000031 79.800003 1864.400024 102.900002 1888.400024 102.900002 1869.000023 117.199997 1876.400024 140.300003 1857.000031 126 1837.500031 140.300003 1844.900024 117.199997 1825.500031 102.900002 1849.500031 102.900002 1857.000031 79.800003"/>
  <polyline class="st2" points="1857.000031 193.300003 1864.400024 216.399994 1888.400024 216.399994 1869.000023 230.699997 1876.400024 253.800003 1857.000031 239.5 1837.500031 253.800003 1844.900024 230.699997 1825.500031 216.399994 1849.500031 216.399994 1857.000031 193.300003"/>
  <polyline class="st2" points="1857.000031 306.799988 1864.400024 329.899994 1888.400024 329.899994 1869.000023 344.200012 1876.400024 367.299988 1857.000031 353.100006 1837.500031 367.299988 1844.900024 344.200012 1825.500031 329.899994 1849.500031 329.899994 1857.000031 306.799988"/>
  <polyline class="st2" points="1857.000031 420.299988 1864.400024 443.5 1888.400024 443.5 1869.000023 457.700012 1876.400024 480.899994 1857.000031 466.600006 1837.500031 480.899994 1844.900024 457.700012 1825.500031 443.5 1849.500031 443.5 1857.000031 420.299988"/>
  <polyline class="st2" points="1724.300018 79.800003 1731.700012 102.900002 1755.800018 102.900002 1736.300018 117.199997 1743.800018 140.300003 1724.300018 126 1704.800018 140.300003 1712.300018 117.199997 1692.800018 102.900002 1716.900024 102.900002 1724.300018 79.800003"/>
  <polyline class="st2" points="1724.300018 193.300003 1731.700012 216.399994 1755.800018 216.399994 1736.300018 230.699997 1743.800018 253.800003 1724.300018 239.5 1704.800018 253.800003 1712.300018 230.699997 1692.800018 216.399994 1716.900024 216.399994 1724.300018 193.300003"/>
  <polyline class="st2" points="1724.300018 306.799988 1731.700012 329.899994 1755.800018 329.899994 1736.300018 344.200012 1743.800018 367.299988 1724.300018 353.100006 1704.800018 367.299988 1712.300018 344.200012 1692.800018 329.899994 1716.900024 329.899994 1724.300018 306.799988"/>
  <polyline class="st2" points="1724.300018 420.299988 1731.700012 443.5 1755.800018 443.5 1736.300018 457.700012 1743.800018 480.899994 1724.300018 466.600006 1704.800018 480.899994 1712.300018 457.700012 1692.800018 443.5 1716.900024 443.5 1724.300018 420.299988"/>
  <polyline class="st2" points="1591.600037 79.800003 1599.100037 102.900002 1623.100037 102.900002 1603.700012 117.199997 1611.100037 140.300003 1591.600037 126 1572.200012 140.300003 1579.600037 117.199997 1560.100037 102.900002 1584.200012 102.900002 1591.600037 79.800003"/>
  <polyline class="st2" points="1591.600037 193.300003 1599.100037 216.399994 1623.100037 216.399994 1603.700012 230.699997 1611.100037 253.800003 1591.600037 239.5 1572.200012 253.800003 1579.600037 230.699997 1560.100037 216.399994 1584.200012 216.399994 1591.600037 193.300003"/>
  <polyline class="st2" points="1591.600037 306.799988 1599.100037 329.899994 1623.100037 329.899994 1603.700012 344.200012 1611.100037 367.299988 1591.600037 353.100006 1572.200012 367.299988 1579.600037 344.200012 1560.100037 329.899994 1584.200012 329.899994 1591.600037 306.799988"/>
  <polyline class="st2" points="1591.600037 420.299988 1599.100037 443.5 1623.100037 443.5 1603.700012 457.700012 1611.100037 480.899994 1591.600037 466.600006 1572.200012 480.899994 1579.600037 457.700012 1560.100037 443.5 1584.200012 443.5 1591.600037 420.299988"/>
  <polyline class="st2" points="1459 79.800003 1466.400024 102.900002 1490.400024 102.900002 1471 117.199997 1478.400024 140.300003 1459 126 1439.5 140.300003 1446.900024 117.199997 1427.5 102.900002 1451.5 102.900002 1459 79.800003"/>
  <polyline class="st2" points="1459 193.300003 1466.400024 216.399994 1490.400024 216.399994 1471 230.699997 1478.400024 253.800003 1459 239.5 1439.5 253.800003 1446.900024 230.699997 1427.5 216.399994 1451.5 216.399994 1459 193.300003"/>
  <polyline class="st2" points="1459 306.799988 1466.400024 329.899994 1490.400024 329.899994 1471 344.200012 1478.400024 367.299988 1459 353.100006 1439.5 367.299988 1446.900024 344.200012 1427.5 329.899994 1451.5 329.899994 1459 306.799988"/>
  <polyline class="st2" points="1459 420.299988 1466.400024 443.5 1490.400024 443.5 1471 457.700012 1478.400024 480.899994 1459 466.600006 1439.5 480.899994 1446.900024 457.700012 1427.5 443.5 1451.5 443.5 1459 420.299988"/>
  <polyline class="st2" points="1326.300049 79.800003 1333.700012 102.900002 1357.800049 102.900002 1338.300049 117.199997 1345.700012 140.300003 1326.300049 126 1306.800049 140.300003 1314.300049 117.199997 1294.800049 102.900002 1318.900024 102.900002 1326.300049 79.800003"/>
  <polyline class="st2" points="1326.300049 193.300003 1333.700012 216.399994 1357.800049 216.399994 1338.300049 230.699997 1345.700012 253.800003 1326.300049 239.5 1306.800049 253.800003 1314.300049 230.699997 1294.800049 216.399994 1318.900024 216.399994 1326.300049 193.300003"/>
  <polyline class="st2" points="1326.300049 306.799988 1333.700012 329.899994 1357.800049 329.899994 1338.300049 344.200012 1345.700012 367.299988 1326.300049 353.100006 1306.800049 367.299988 1314.300049 344.200012 1294.800049 329.899994 1318.900024 329.899994 1326.300049 306.799988"/>
  <polyline class="st2" points="1326.300049 420.299988 1333.700012 443.5 1357.800049 443.5 1338.300049 457.700012 1345.700012 480.899994 1326.300049 466.600006 1306.800049 480.899994 1314.300049 457.700012 1294.800049 443.5 1318.900024 443.5 1326.300049 420.299988"/>
  <polyline class="st2" points="1922.400024 135.199997 1929.900024 158.300003 1953.900024 158.300003 1934.400024 172.600006 1941.900024 195.699997 1922.400024 181.399994 1903.000023 195.699997 1910.400024 172.600006 1890.900024 158.300003 1915.000023 158.300003 1922.400024 135.199997"/>
  <polyline class="st2" points="1922.400024 248.699997 1929.900024 271.799988 1953.900024 271.799988 1934.400024 286.100006 1941.900024 309.200012 1922.400024 295 1903.000023 309.200012 1910.400024 286.100006 1890.900024 271.799988 1915.000023 271.799988 1922.400024 248.699997"/>
  <polyline class="st2" points="1922.400024 362.200012 1929.900024 385.399994 1953.900024 385.399994 1934.400024 399.600006 1941.900024 422.799988 1922.400024 408.5 1903.000023 422.799988 1910.400024 399.600006 1890.900024 385.399994 1915.000023 385.399994 1922.400024 362.200012"/>
  <polyline class="st2" points="1922.400024 475.799988 1929.900024 498.899994 1953.900024 498.899994 1934.400024 513.200012 1941.900024 536.299988 1922.400024 522 1903.000023 536.299988 1910.400024 513.200012 1890.900024 498.899994 1915.000023 498.899994 1922.400024 475.799988"/>
  <polyline class="st2" points="1791.500031 21.700001 1798.900024 44.799999 1823.000031 44.799999 1803.500031 59.099999 1811.000031 82.199997 1791.500031 67.900002 1772.100021 82.199997 1779.500031 59.099999 1760.000031 44.799999 1784.100021 44.799999 1791.500031 21.700001"/>
  <polyline class="st2" points="1791.500031 135.199997 1798.900024 158.300003 1823.000031 158.300003 1803.500031 172.600006 1811.000031 195.699997 1791.500031 181.399994 1772.100021 195.699997 1779.500031 172.600006 1760.000031 158.300003 1784.100021 158.300003 1791.500031 135.199997"/>
  <polyline class="st2" points="1791.500031 248.699997 1798.900024 271.799988 1823.000031 271.799988 1803.500031 286.100006 1811.000031 309.200012 1791.500031 295 1772.100021 309.200012 1779.500031 286.100006 1760.000031 271.799988 1784.100021 271.799988 1791.500031 248.699997"/>
  <polyline class="st2" points="1791.500031 362.200012 1798.900024 385.399994 1823.000031 385.399994 1803.500031 399.600006 1811.000031 422.799988 1791.500031 408.5 1772.100021 422.799988 1779.500031 399.600006 1760.000031 385.399994 1784.100021 385.399994 1791.500031 362.200012"/>
  <polyline class="st2" points="1791.500031 475.799988 1798.900024 498.899994 1823.000031 498.899994 1803.500031 513.200012 1811.000031 536.299988 1791.500031 522 1772.100021 536.299988 1779.500031 513.200012 1760.000031 498.899994 1784.100021 498.899994 1791.500031 475.799988"/>
  <polyline class="st2" points="1657.100037 21.700001 1664.500031 44.799999 1688.600037 44.799999 1669.100037 59.099999 1676.500031 82.199997 1657.100037 67.900002 1637.600037 82.199997 1645.100037 59.099999 1625.600037 44.799999 1649.600037 44.799999 1657.100037 21.700001"/>
  <polyline class="st2" points="1657.100037 135.199997 1664.500031 158.300003 1688.600037 158.300003 1669.100037 172.600006 1676.500031 195.699997 1657.100037 181.399994 1637.600037 195.699997 1645.100037 172.600006 1625.600037 158.300003 1649.600037 158.300003 1657.100037 135.199997"/>
  <polyline class="st2" points="1657.100037 248.699997 1664.500031 271.799988 1688.600037 271.799988 1669.100037 286.100006 1676.500031 309.200012 1657.100037 295 1637.600037 309.200012 1645.100037 286.100006 1625.600037 271.799988 1649.600037 271.799988 1657.100037 248.699997"/>
  <polyline class="st2" points="1657.100037 362.200012 1664.500031 385.399994 1688.600037 385.399994 1669.100037 399.600006 1676.500031 422.799988 1657.100037 408.5 1637.600037 422.799988 1645.100037 399.600006 1625.600037 385.399994 1649.600037 385.399994 1657.100037 362.200012"/>
  <polyline class="st2" points="1657.100037 475.799988 1664.500031 498.899994 1688.600037 498.899994 1669.100037 513.200012 1676.500031 536.299988 1657.100037 522 1637.600037 536.299988 1645.100037 513.200012 1625.600037 498.899994 1649.600037 498.899994 1657.100037 475.799988"/>
  <polyline class="st2" points="1525.300018 21.700001 1532.700012 44.799999 1556.800018 44.799999 1537.300018 59.099998 1544.700012 82.199997 1525.300018 67.900002 1505.800018 82.199997 1513.300018 59.099998 1493.800018 44.799999 1517.900024 44.799999 1525.300018 21.700001"/>
  <polyline class="st2" points="1525.300018 135.199997 1532.700012 158.300003 1556.800018 158.300003 1537.300018 172.600006 1544.700012 195.699997 1525.300018 181.399994 1505.800018 195.699997 1513.300018 172.600006 1493.800018 158.300003 1517.900024 158.300003 1525.300018 135.199997"/>
  <polyline class="st2" points="1525.300018 248.699997 1532.700012 271.799988 1556.800018 271.799988 1537.300018 286.100006 1544.700012 309.200012 1525.300018 295 1505.800018 309.200012 1513.300018 286.100006 1493.800018 271.799988 1517.900024 271.799988 1525.300018 248.699997"/>
  <polyline class="st2" points="1525.300018 362.200012 1532.700012 385.399994 1556.800018 385.399994 1537.300018 399.600006 1544.700012 422.799988 1525.300018 408.5 1505.800018 422.799988 1513.300018 399.600006 1493.800018 385.399994 1517.900024 385.399994 1525.300018 362.200012"/>
  <polyline class="st2" points="1525.300018 475.799988 1532.700012 498.899994 1556.800018 498.899994 1537.300018 513.200012 1544.700012 536.299988 1525.300018 522 1505.800018 536.299988 1513.300018 513.200012 1493.800018 498.899994 1517.900024 498.899994 1525.300018 475.799988"/>
  <polyline class="st2" points="1393.5 21.700001 1400.900024 44.799999 1425 44.799999 1405.5 59.099998 1413 82.199997 1393.5 67.900002 1374 82.199997 1381.5 59.099998 1362 44.799999 1386.100037 44.799999 1393.5 21.700001"/>
  <polyline class="st2" points="1393.5 135.199997 1400.900024 158.300003 1425 158.300003 1405.5 172.600006 1413 195.699997 1393.5 181.399994 1374 195.699997 1381.5 172.600006 1362 158.300003 1386.100037 158.300003 1393.5 135.199997"/>
  <polyline class="st2" points="1393.5 248.699997 1400.900024 271.799988 1425 271.799988 1405.5 286.100006 1413 309.200012 1393.5 295 1374 309.200012 1381.5 286.100006 1362 271.799988 1386.100037 271.799988 1393.5 248.699997"/>
  <polyline class="st2" points="1393.5 362.200012 1400.900024 385.399994 1425 385.399994 1405.5 399.600006 1413 422.799988 1393.5 408.5 1374 422.799988 1381.5 399.600006 1362 385.399994 1386.100037 385.399994 1393.5 362.200012"/>
  <polyline class="st2" points="1393.5 475.799988 1400.900024 498.899994 1425 498.899994 1405.5 513.200012 1413 536.299988 1393.5 522 1374 536.299988 1381.5 513.200012 1362 498.899994 1386.100037 498.899994 1393.5 475.799988"/>
  <polyline class="st2" points="1259.100037 21.700001 1266.5 44.799999 1290.5 44.799999 1271.100037 59.099998 1278.5 82.199997 1259.100037 67.900002 1239.600037 82.199997 1247 59.099998 1227.600037 44.799999 1251.600037 44.799999 1259.100037 21.700001"/>
  <polyline class="st2" points="1259.100037 135.199997 1266.5 158.300003 1290.5 158.300003 1271.100037 172.600006 1278.5 195.699997 1259.100037 181.399994 1239.600037 195.699997 1247 172.600006 1227.600037 158.300003 1251.600037 158.300003 1259.100037 135.199997"/>
  <polyline class="st2" points="1259.100037 248.699997 1266.5 271.799988 1290.5 271.799988 1271.100037 286.100006 1278.5 309.200012 1259.100037 295 1239.600037 309.200012 1247 286.100006 1227.600037 271.799988 1251.600037 271.799988 1259.100037 248.699997"/>
  <polyline class="st2" points="1259.100037 362.200012 1266.5 385.399994 1290.5 385.399994 1271.100037 399.600006 1278.5 422.799988 1259.100037 408.5 1239.600037 422.799988 1247 399.600006 1227.600037 385.399994 1251.600037 385.399994 1259.100037 362.200012"/>
  <polyline class="st2" points="1259.100037 475.799988 1266.5 498.899994 1290.5 498.899994 1271.100037 513.200012 1278.5 536.299988 1259.100037 522 1239.600037 536.299988 1247 513.200012 1227.600037 498.899994 1251.600037 498.899994 1259.100037 475.799988"/>
</svg>