<?xml version="1.0" encoding="UTF-8"?>
<svg id="Layer_1" xmlns="http://www.w3.org/2000/svg" version="1.1" viewBox="0 0 399.6 69.8">
  <!-- Generator: Adobe Illustrator 29.1.0, SVG Export Plug-In . SVG Version: 2.1.0 Build 142)  -->
  <defs>
    <style>
      .st0 {
        fill: #221f1f;
      }

      .st1 {
        fill: #ff6c0e;
      }
    </style>
  </defs>
  <g>
    <g>
      <g>
        <path class="st0" d="M232.6,13.3h-21.2v40.6h21.2c11.2,0,20.3-9.1,20.3-20.3s-9.1-20.3-20.3-20.3ZM232.6,43.8h-11v-20.3h11c5.6,0,10.1,4.5,10.1,10.1s-4.5,10.1-10.1,10.1Z"/>
        <path class="st0" d="M194.3,36.6c0,4-3.2,7.2-7.2,7.2h-2.9c-4,0-7.2-3.2-7.2-7.2V12.9h-10.2v23.7c0,9.6,7.8,17.4,17.4,17.4h2.9c9.6,0,17.4-7.8,17.4-17.4V12.9h-10.2v23.7Z"/>
        <path class="st0" d="M324,12.3h-6.4c-9.6,0-17.4,7.8-17.4,17.4v6.9c0,9.6,7.8,17.4,17.4,17.4h6.4c9.6,0,17.4-7.8,17.4-17.4v-6.9c0-9.6-7.8-17.4-17.4-17.4ZM331.1,36.6c0,4-3.2,7.2-7.2,7.2h-6.4c-4,0-7.2-3.2-7.2-7.2v-6.9c0-4,3.2-7.2,7.2-7.2h6.4c4,0,7.2,3.2,7.2,7.2v6.9Z"/>
      </g>
      <polygon class="st0" points="375 35.1 356 12.9 347.4 12.9 347.4 53.7 357.6 53.7 357.6 30.4 377.6 53.7 385.2 53.7 385.2 12.9 375 12.9 375 35.1"/>
      <path class="st0" d="M107.1,28.5h-15.1c-1.4,0-2.6-1.1-2.6-2.5s1.1-2.6,2.6-2.6h17.4s3.2,0,4.8-.8c1.6-.7,2.5-2.4,2.5-2.4l3.7-7h-28.3c-7,0-12.7,5.7-12.7,12.7s5.7,12.7,12.7,12.7h15.4c1.3.1,2.3,1.2,2.3,2.5s-1.1,2.6-2.6,2.6h-20.2c-.7,0-3.2.2-4.6.8-1.6.7-2.5,2.4-2.5,2.4h0s-3.7,7-3.7,7h31c7,0,12.7-5.7,12.7-12.7s-5.7-12.7-12.7-12.7Z"/>
      <path class="st0" d="M283.8,28.5h-15.1c-1.4,0-2.6-1.1-2.6-2.5s1.1-2.6,2.6-2.6h15.3s3.2,0,4.8-.8c.7-.3,1.3-.9,1.7-1.4l4.2-8h-26c-7,0-12.7,5.7-12.7,12.7s5.7,12.7,12.7,12.7h15.4c1.3.1,2.3,1.2,2.3,2.5s-1.1,2.6-2.6,2.6h-19.1c-.7,0-3.2.2-4.6.8-1.6.7-2.5,2.4-2.5,2.4v-.2s-3.8,7.1-3.8,7.1h29.9c7,0,12.7-5.7,12.7-12.7s-5.7-12.7-12.7-12.7Z"/>
      <path class="st0" d="M130.8,13.3c-1,0-3,.2-4.2.8-1.2.5-1.9,1.6-2.3,2.1l-3.9,7.3h16.1v30.5h10.2v-30.5h15.2v-10.2h-31.2Z"/>
    </g>
    <g>
      <path d="M391.7,13.2v5.3h-.6v-5.3h-1.7v-.5h4.1v.5h-1.7Z"/>
      <path d="M399,18.5v-5.3h0l-1.6,5.3h-.5l-1.6-5.3h0v5.3h-.6v-5.8h1l1.5,4.7h0l1.5-4.7h1v5.8h-.6Z"/>
    </g>
  </g>
  <g>
    <path class="st1" d="M18,46h0s.8-1.5,2.2-2.1c1.2-.6,3.4-.7,4.1-.7h17.5c1.3,0,2.3-1,2.3-2.3s-.9-2.1-2-2.3h-.2s-13,0-13,0c-6.2,0-11.3-5.1-11.3-11.3s5.1-11.3,11.3-11.3h23.7L37.5,1.1c-1.4-1.4-3.7-1.4-5.2,0L1.1,32.3c-1.4,1.4-1.4,3.7,0,5.2l14,14,2.9-5.5Z"/>
    <path class="st1" d="M68.7,32.3l-15.5-15.5-2.9,5.5h0s-.8,1.5-2.2,2.1c-1.4.6-4.2.7-4.2.7h-15c-1.3,0-2.3,1-2.3,2.3s1,2.3,2.3,2.3h13c6.2,0,11.3,5.1,11.3,11.3s-5.1,11.3-11.3,11.3H15.8l16.5,16.5c1.4,1.4,3.7,1.4,5.2,0l31.2-31.2c1.4-1.4,1.4-3.7,0-5.2Z"/>
  </g>
</svg>